<svg width="57" height="49" viewBox="0 0 57 49" fill="none" xmlns="http://www.w3.org/2000/svg">
<mask id="path-1-inside-1_60_25" fill="white">
<path d="M28.5 12.6875C30.4688 4.91587 37.9045 0.947612 54.0938 0.875014C54.3526 0.874038 54.609 0.924295 54.8483 1.02289C55.0876 1.12148 55.305 1.26646 55.4881 1.44947C55.6711 1.63248 55.816 1.8499 55.9146 2.0892C56.0132 2.3285 56.0635 2.58495 56.0625 2.84376V38.2813C56.0625 38.8034 55.8551 39.3042 55.4859 39.6734C55.1167 40.0426 54.6159 40.25 54.0938 40.25C38.3438 40.25 32.2591 43.4259 28.5 48.125C24.7631 43.4492 18.6563 40.25 2.90626 40.25C1.69056 40.25 0.937514 39.2595 0.937514 38.0438V2.84376C0.936538 2.58495 0.986795 2.3285 1.08539 2.0892C1.18398 1.8499 1.32896 1.63248 1.51197 1.44947C1.69498 1.26646 1.9124 1.12148 2.1517 1.02289C2.391 0.924295 2.64745 0.874038 2.90626 0.875014C19.0955 0.947612 26.5313 4.91587 28.5 12.6875ZM28.5 12.6875V48.125Z"/>
</mask>
<path d="M54.0938 0.875014L54.0862 -1.12497L54.0848 -1.12497L54.0938 0.875014ZM56.0625 2.84376L54.0625 2.83622V2.84376H56.0625ZM28.5 48.125L26.9377 49.3737L28.4993 51.3276L30.0618 49.3744L28.5 48.125ZM0.937514 2.84376L2.93753 2.84376L2.9375 2.83622L0.937514 2.84376ZM2.90626 0.875014L2.91523 -1.12497L2.91381 -1.12497L2.90626 0.875014ZM30.4388 13.1786C31.2699 9.89774 33.2064 7.4283 36.8264 5.69873C40.5623 3.9138 46.1211 2.91079 54.1027 2.87499L54.0848 -1.12497C45.8772 -1.08816 39.6235 -0.0707399 35.102 2.08952C30.4647 4.30513 27.6989 7.70564 26.5613 12.1964L30.4388 13.1786ZM54.1013 2.875C54.0962 2.87502 54.0912 2.87403 54.0864 2.87209L55.6102 -0.82631C55.1269 -1.02544 54.609 -1.12694 54.0862 -1.12497L54.1013 2.875ZM54.0864 2.87209C54.0817 2.87015 54.0775 2.86729 54.0738 2.86368L56.9023 0.0352573C56.5326 -0.334372 56.0935 -0.627184 55.6102 -0.82631L54.0864 2.87209ZM54.0738 2.86368C54.0702 2.86008 54.0674 2.85579 54.0654 2.85108L57.7638 1.32732C57.5647 0.84401 57.2719 0.404885 56.9023 0.0352573L54.0738 2.86368ZM54.0654 2.85108C54.0635 2.84638 54.0625 2.84133 54.0625 2.83622L58.0625 2.85131C58.0645 2.32857 57.963 1.81063 57.7638 1.32732L54.0654 2.85108ZM54.0625 2.84376V38.2813H58.0625V2.84376H54.0625ZM54.0625 38.2813C54.0625 38.273 54.0658 38.265 54.0717 38.2592L56.9001 41.0876C57.6444 40.3433 58.0625 39.3338 58.0625 38.2813H54.0625ZM54.0717 38.2592C54.0775 38.2533 54.0855 38.25 54.0938 38.25V42.25C55.1463 42.25 56.1558 41.8319 56.9001 41.0876L54.0717 38.2592ZM54.0938 38.25C38.1069 38.25 31.2599 41.4732 26.9382 46.8757L30.0618 49.3744C33.2583 45.3785 38.5807 42.25 54.0938 42.25V38.25ZM30.0624 46.8764C25.7632 41.4972 18.8942 38.25 2.90626 38.25V42.25C18.4183 42.25 23.7629 45.4013 26.9377 49.3737L30.0624 46.8764ZM2.90626 38.25C2.87896 38.25 2.89226 38.2457 2.92618 38.2614C2.95896 38.2766 2.98041 38.2964 2.98881 38.3062C3.00158 38.3212 2.93751 38.2508 2.93751 38.0438H-1.06249C-1.06249 39.0525 -0.750024 40.0852 -0.0568074 40.8993C0.661637 41.7432 1.70952 42.25 2.90626 42.25V38.25ZM2.93751 38.0438V2.84376H-1.06249V38.0438H2.93751ZM2.9375 2.83622C2.93752 2.84132 2.93653 2.84637 2.93459 2.85108L-0.763811 1.32732C-0.962939 1.81064 -1.06444 2.32858 -1.06247 2.85131L2.9375 2.83622ZM2.93459 2.85108C2.93264 2.8558 2.92979 2.86008 2.92618 2.86368L0.0977578 0.0352573C-0.271867 0.404882 -0.564682 0.844007 -0.763811 1.32732L2.93459 2.85108ZM2.92618 2.86368C2.92258 2.86729 2.9183 2.87015 2.91358 2.87209L1.38982 -0.82631C0.906509 -0.627183 0.467384 -0.334369 0.0977578 0.0352573L2.92618 2.86368ZM2.91358 2.87209C2.90887 2.87403 2.90382 2.87502 2.89872 2.875L2.91381 -1.12497C2.39108 -1.12694 1.87313 -1.02544 1.38982 -0.82631L2.91358 2.87209ZM2.8973 2.87499C10.879 2.91079 16.4377 3.9138 20.1736 5.69873C23.7937 7.4283 25.7301 9.89774 26.5613 13.1786L30.4388 12.1964C29.3012 7.70564 26.5354 4.30513 21.898 2.08952C17.3766 -0.0707399 11.1229 -1.08816 2.91523 -1.12497L2.8973 2.87499ZM26.5 12.6875V48.125H30.5V12.6875H26.5Z" fill="#F9C041" mask="url(#path-1-inside-1_60_25)"/>
</svg>
