<svg width="80" height="80" viewBox="0 0 80 80" fill="none" xmlns="http://www.w3.org/2000/svg">
<g opacity="0.3" filter="url(#filter0_d_7_8)">
<rect x="4" width="72" height="72" rx="11" fill="#B8B5A9"/>
<path d="M41.136 46.144L39.168 41.2H26.592L24.72 46.144C24.48 46.816 24.288 47.44 24.288 47.968C24.288 49.504 25.584 50.032 28.32 50.176V52H18.24V50.176C19.536 49.936 20.544 49.696 21.024 48.4L31.296 21.904L29.76 18.112H38.448L50.592 48.4C51.072 49.648 52.08 49.936 53.424 50.176V52H37.632V50.176C40.272 50.08 41.568 49.552 41.568 48.016C41.568 47.488 41.376 46.864 41.136 46.144ZM32.736 25.024L27.456 38.896H38.256L32.736 25.024ZM55.5806 47.92C55.5806 45.28 57.5966 43.36 60.1406 43.36C62.6366 43.36 64.6526 45.28 64.6526 47.92C64.6526 50.56 62.6366 52.48 60.1406 52.48C57.5966 52.48 55.5806 50.56 55.5806 47.92Z" fill="#2C2B27"/>
</g>
<defs>
<filter id="filter0_d_7_8" x="0" y="0" width="80" height="80" filterUnits="userSpaceOnUse" color-interpolation-filters="sRGB">
<feFlood flood-opacity="0" result="BackgroundImageFix"/>
<feColorMatrix in="SourceAlpha" type="matrix" values="0 0 0 0 0 0 0 0 0 0 0 0 0 0 0 0 0 0 127 0" result="hardAlpha"/>
<feOffset dy="4"/>
<feGaussianBlur stdDeviation="2"/>
<feComposite in2="hardAlpha" operator="out"/>
<feColorMatrix type="matrix" values="0 0 0 0 0 0 0 0 0 0 0 0 0 0 0 0 0 0 0.25 0"/>
<feBlend mode="normal" in2="BackgroundImageFix" result="effect1_dropShadow_7_8"/>
<feBlend mode="normal" in="SourceGraphic" in2="effect1_dropShadow_7_8" result="shape"/>
</filter>
</defs>
</svg>
