<svg width="132" height="132" viewBox="0 0 132 132" fill="none" xmlns="http://www.w3.org/2000/svg">
<g clip-path="url(#clip0_12_69)">
<path d="M66.4022 1.06215C69.1659 8.67278 72.7856 16.7062 76.0856 22.5328C78.6637 27.1012 81.6338 31.5459 84.4903 35.114C88.2441 39.7856 93.0291 44.519 97.6697 48.1284C104.899 53.7487 113.231 58.4203 123.956 62.8753C125.668 63.5868 129.381 65.0306 130.938 65.5978C131.464 65.7937 131.897 65.969 131.897 66C131.897 66.0309 131.464 66.2062 130.938 66.4022C130.422 66.5878 128.989 67.1343 127.772 67.6087C106.559 75.8278 93.0291 85.3359 82.5516 99.4125C81.3244 101.073 78.6741 105.022 77.6325 106.786C73.5281 113.664 69.6197 122.09 66.4022 130.938C66.2062 131.464 66.0309 131.897 66 131.897C65.9691 131.897 65.7937 131.464 65.5978 130.938C62.8341 123.327 59.2144 115.294 55.9144 109.467C53.3362 104.899 50.3662 100.454 47.5097 96.8859C43.7559 92.2143 38.9709 87.4809 34.3303 83.8715C27.1012 78.2512 18.7687 73.5797 8.04374 69.1247C6.33186 68.4131 2.61937 66.9693 1.06218 66.4022C0.53624 66.2062 0.103119 66.0309 0.103119 66C0.103119 65.969 0.53624 65.7937 1.06218 65.5978C1.5778 65.4122 3.01125 64.8656 4.22811 64.3912C25.4409 56.1721 38.9709 46.664 49.4484 32.5875C50.6756 30.9271 53.3259 26.9775 54.3675 25.214C58.4719 18.3356 62.3803 9.91027 65.5978 1.06215C65.7937 0.536209 65.9691 0.103088 66 0.103088C66.0309 0.103088 66.2062 0.536209 66.4022 1.06215Z" fill="black"/>
</g>
<defs>
<clipPath id="clip0_12_69">
<rect width="132" height="132" fill="white" transform="matrix(-1 0 0 1 132 0)"/>
</clipPath>
</defs>
</svg>
