<svg width="37" height="37" viewBox="0 0 37 37" fill="none" xmlns="http://www.w3.org/2000/svg">
<g clip-path="url(#clip0_9_41)">
<path d="M9.0332 3.97759C8.95232 3.84303 8.89901 3.69371 8.8764 3.53835C8.85379 3.38298 8.86233 3.22467 8.90151 3.07264C8.94068 2.9206 9.00973 2.77788 9.10461 2.65279C9.19949 2.5277 9.31831 2.42275 9.45416 2.34404C9.59001 2.26533 9.74016 2.21443 9.89587 2.19433C10.0516 2.17422 10.2097 2.1853 10.3611 2.22692C10.5125 2.26854 10.6541 2.33987 10.7776 2.43675C10.9012 2.53363 11.0042 2.65413 11.0807 2.79123L12.6043 5.41989C12.764 5.69181 12.8092 6.01604 12.7299 6.32125C12.6505 6.62646 12.4532 6.88766 12.1813 7.04737C11.9094 7.20709 11.5851 7.25225 11.2799 7.17291C10.9747 7.09357 10.7135 6.89624 10.5538 6.62432L9.0332 3.97759ZM18.503 7.89198C20.957 7.89388 23.3345 8.74655 25.2303 10.3047C27.1262 11.8629 28.4232 14.0302 28.9003 16.4374C29.3775 18.8446 29.0053 21.3427 27.8472 23.5063C26.689 25.6698 24.8166 27.3649 22.5488 28.3027C20.2811 29.2406 17.7583 29.3632 15.4103 28.6496C13.0623 27.9361 11.0344 26.4305 9.67192 24.3895C8.30946 22.3484 7.6968 19.8981 7.93831 17.456C8.17982 15.0139 9.26056 12.731 10.9964 10.9964C11.9807 10.0096 13.1504 9.22712 14.4381 8.69384C15.7258 8.16057 17.1062 7.88704 18.5 7.88897L18.503 7.89198ZM17.5575 1.2044C17.5494 1.04337 17.5741 0.882381 17.6302 0.731204C17.6862 0.580027 17.7724 0.441821 17.8835 0.324983C17.9946 0.208146 18.1283 0.115117 18.2765 0.0515484C18.4246 -0.0120198 18.5842 -0.0447998 18.7454 -0.0447998C18.9066 -0.0447998 19.0662 -0.0120198 19.2143 0.0515484C19.3625 0.115117 19.4962 0.208146 19.6073 0.324983C19.7184 0.441821 19.8046 0.580027 19.8606 0.731204C19.9167 0.882381 19.9414 1.04337 19.9333 1.2044V4.23353C19.9414 4.39456 19.9167 4.55555 19.8606 4.70672C19.8046 4.8579 19.7184 4.99611 19.6073 5.11295C19.4962 5.22978 19.3625 5.32281 19.2143 5.38638C19.0662 5.44995 18.9066 5.48273 18.7454 5.48273C18.5842 5.48273 18.4246 5.44995 18.2765 5.38638C18.1283 5.32281 17.9946 5.22978 17.8835 5.11295C17.7724 4.99611 17.6862 4.8579 17.6302 4.70672C17.5741 4.55555 17.5494 4.39456 17.5575 4.23353V1.2044ZM26.3438 3.04115C26.4159 2.8972 26.5166 2.76946 26.6397 2.66576C26.7628 2.56206 26.9058 2.48456 27.0599 2.43802C27.214 2.39148 27.376 2.37687 27.5359 2.39509C27.6959 2.4133 27.8504 2.46396 27.9901 2.54396C28.1298 2.62396 28.2517 2.73162 28.3483 2.86035C28.445 2.98908 28.5144 3.13618 28.5522 3.29265C28.59 3.44911 28.5956 3.61166 28.5684 3.77033C28.5413 3.929 28.4821 4.08047 28.3944 4.21546L26.8708 6.85316C26.7954 6.99184 26.6931 7.11405 26.5697 7.21258C26.4464 7.31111 26.3047 7.38398 26.1528 7.4269C26.0009 7.46981 25.8419 7.4819 25.6853 7.46246C25.5286 7.44302 25.3775 7.39244 25.2407 7.3137C25.1039 7.23496 24.9842 7.12964 24.8887 7.00396C24.7933 6.87827 24.7239 6.73475 24.6847 6.58185C24.6455 6.42895 24.6373 6.26976 24.6606 6.11364C24.6839 5.95753 24.7382 5.80765 24.8202 5.67282L26.3438 3.03814V3.04115ZM33.0224 9.03317C33.2943 8.87585 33.6176 8.83299 33.9211 8.91403C34.2246 8.99506 34.4835 9.19334 34.6408 9.46526C34.7981 9.73718 34.841 10.0605 34.76 10.364C34.6789 10.6675 34.4807 10.9264 34.2087 11.0837L31.5741 12.6073C31.4394 12.6864 31.2905 12.7382 31.1359 12.7597C30.9812 12.7813 30.8238 12.7721 30.6727 12.7328C30.5216 12.6936 30.3797 12.6249 30.2551 12.5308C30.1305 12.4366 30.0257 12.3189 29.9466 12.1843C29.8675 12.0496 29.8157 11.9007 29.7942 11.7461C29.7726 11.5914 29.7818 11.434 29.821 11.2829C29.8603 11.1318 29.929 10.9899 30.0231 10.8653C30.1172 10.7407 30.235 10.6359 30.3696 10.5568L33.0224 9.03317ZM35.8106 17.5605C35.9716 17.5524 36.1326 17.5771 36.2838 17.6332C36.435 17.6892 36.5732 17.7754 36.69 17.8865C36.8069 17.9976 36.8999 18.1313 36.9635 18.2794C37.027 18.4276 37.0598 18.5872 37.0598 18.7484C37.0598 18.9096 37.027 19.0692 36.9635 19.2173C36.8999 19.3655 36.8069 19.4992 36.69 19.6103C36.5732 19.7214 36.435 19.8076 36.2838 19.8636C36.1326 19.9196 35.9716 19.9444 35.8106 19.9362H32.7664C32.6054 19.9444 32.4444 19.9196 32.2932 19.8636C32.1421 19.8076 32.0039 19.7214 31.887 19.6103C31.7702 19.4992 31.6772 19.3655 31.6136 19.2173C31.55 19.0692 31.5172 18.9096 31.5172 18.7484C31.5172 18.5872 31.55 18.4276 31.6136 18.2794C31.6772 18.1313 31.7702 17.9976 31.887 17.8865C32.0039 17.7754 32.1421 17.6892 32.2932 17.6332C32.4444 17.5771 32.6054 17.5524 32.7664 17.5605H35.8106ZM33.9588 26.3468C34.1006 26.4203 34.2261 26.5217 34.3277 26.6449C34.4292 26.7682 34.5048 26.9107 34.5499 27.0639C34.5949 27.2171 34.6084 27.3779 34.5897 27.5365C34.5709 27.6951 34.5203 27.8483 34.4407 27.9868C34.3612 28.1253 34.2545 28.2462 34.127 28.3424C33.9995 28.4385 33.8538 28.5079 33.6988 28.5462C33.5437 28.5846 33.3825 28.5912 33.2249 28.5656C33.0673 28.54 32.9164 28.4828 32.7815 28.3973L30.1438 26.8737C30.0012 26.801 29.8749 26.7002 29.7724 26.5772C29.6699 26.4542 29.5934 26.3118 29.5476 26.1584C29.5018 26.0051 29.4875 25.844 29.5057 25.685C29.5239 25.526 29.5742 25.3723 29.6535 25.2333C29.7328 25.0942 29.8395 24.9727 29.9671 24.8761C30.0947 24.7795 30.2406 24.7098 30.3959 24.6712C30.5512 24.6325 30.7128 24.6258 30.8708 24.6515C31.0288 24.6771 31.1799 24.7345 31.3151 24.8202L33.9498 26.3438L33.9588 26.3468ZM27.9698 33.0224C28.1271 33.2943 28.17 33.6175 28.089 33.9211C28.0079 34.2246 27.8096 34.4835 27.5377 34.6408C27.2658 34.7981 26.9425 34.841 26.639 34.7599C26.3355 34.6789 26.0766 34.4806 25.9193 34.2087L24.3896 31.574C24.3106 31.4394 24.2588 31.2905 24.2372 31.1358C24.2157 30.9812 24.2248 30.8238 24.2641 30.6727C24.3034 30.5215 24.3721 30.3796 24.4662 30.255C24.5603 30.1305 24.6781 30.0256 24.8127 29.9465C25.0846 29.7868 25.4088 29.7417 25.7141 29.821C25.8652 29.8603 26.0071 29.929 26.1317 30.0231C26.2563 30.1172 26.3611 30.235 26.4402 30.3696L27.9638 33.0073L27.9698 33.0224ZM19.4425 35.8106C19.4506 35.9716 19.4259 36.1326 19.3698 36.2838C19.3138 36.435 19.2276 36.5732 19.1165 36.69C19.0054 36.8069 18.8717 36.8999 18.7235 36.9634C18.5754 37.027 18.4158 37.0598 18.2546 37.0598C18.0934 37.0598 17.9338 37.027 17.7857 36.9634C17.6375 36.8999 17.5038 36.8069 17.3927 36.69C17.2816 36.5732 17.1954 36.435 17.1394 36.2838C17.0833 36.1326 17.0586 35.9716 17.0667 35.8106V32.7664C17.0586 32.6054 17.0833 32.4444 17.1394 32.2932C17.1954 32.142 17.2816 32.0038 17.3927 31.887C17.5038 31.7702 17.6375 31.6771 17.7857 31.6136C17.9338 31.55 18.0934 31.5172 18.2546 31.5172C18.4158 31.5172 18.5754 31.55 18.7235 31.6136C18.8717 31.6771 19.0054 31.7702 19.1165 31.887C19.2276 32.0038 19.3138 32.142 19.3698 32.2932C19.4259 32.4444 19.4506 32.6054 19.4425 32.7664V35.8106ZM10.6562 33.9588C10.493 34.2165 10.2367 34.4012 9.94062 34.4745C9.64456 34.5477 9.33165 34.5039 9.06715 34.352C8.80266 34.2001 8.60701 33.952 8.52102 33.6594C8.43503 33.3668 8.46534 33.0523 8.60563 32.7815L10.1292 30.1438C10.2001 29.9981 10.3001 29.8685 10.4231 29.763C10.5461 29.6576 10.6894 29.5785 10.8442 29.5307C10.999 29.4829 11.1619 29.4673 11.323 29.4851C11.484 29.5028 11.6397 29.5534 11.7803 29.6338C11.921 29.7141 12.0437 29.8225 12.1408 29.9522C12.2379 30.0819 12.3073 30.2302 12.3447 30.3878C12.3822 30.5454 12.3868 30.7091 12.3585 30.8686C12.3301 31.0281 12.2693 31.18 12.1798 31.3151L10.6562 33.9498V33.9588ZM3.97762 27.9698C3.84298 28.0477 3.69432 28.0983 3.54011 28.1187C3.38591 28.1392 3.22919 28.129 3.07891 28.0889C2.92862 28.0488 2.78771 27.9795 2.66422 27.8849C2.54072 27.7903 2.43707 27.6723 2.35917 27.5377C2.28127 27.403 2.23066 27.2544 2.21022 27.1002C2.18977 26.946 2.1999 26.7893 2.24002 26.639C2.28015 26.4887 2.34948 26.3478 2.44406 26.2243C2.53864 26.1008 2.65662 25.9971 2.79126 25.9192L5.41992 24.3896C5.55496 24.3105 5.70425 24.2588 5.85927 24.2374C6.01429 24.216 6.172 24.2254 6.32341 24.265C6.47481 24.3045 6.61695 24.3735 6.74168 24.468C6.86642 24.5625 6.97133 24.6806 7.05042 24.8157C7.1295 24.9507 7.18121 25.1 7.2026 25.255C7.22399 25.4101 7.21463 25.5678 7.17507 25.7192C7.1355 25.8706 7.06651 26.0127 6.97201 26.1374C6.87752 26.2622 6.75938 26.3671 6.62435 26.4462L3.98665 27.9698H3.97762ZM1.20443 19.4424C1.0434 19.4505 0.882412 19.4258 0.731234 19.3698C0.580057 19.3138 0.441851 19.2276 0.325014 19.1165C0.208176 19.0054 0.115147 18.8717 0.0515789 18.7235C-0.0119893 18.5753 -0.0447693 18.4158 -0.0447693 18.2546C-0.0447693 18.0933 -0.0119893 17.9338 0.0515789 17.7856C0.115147 17.6375 0.208176 17.5038 0.325014 17.3927C0.441851 17.2816 0.580057 17.1954 0.731234 17.1393C0.882412 17.0833 1.0434 17.0586 1.20443 17.0667H4.23356C4.39459 17.0586 4.55558 17.0833 4.70675 17.1393C4.85793 17.1954 4.99614 17.2816 5.11298 17.3927C5.22981 17.5038 5.32284 17.6375 5.38641 17.7856C5.44998 17.9338 5.48276 18.0933 5.48276 18.2546C5.48276 18.4158 5.44998 18.5753 5.38641 18.7235C5.32284 18.8717 5.22981 19.0054 5.11298 19.1165C4.99614 19.2276 4.85793 19.3138 4.70675 19.3698C4.55558 19.4258 4.39459 19.4505 4.23356 19.4424H1.20443ZM3.04118 10.6561C2.89723 10.5841 2.76949 10.4834 2.66579 10.3603C2.56209 10.2372 2.48459 10.0942 2.43805 9.94008C2.39151 9.78598 2.3769 9.624 2.39512 9.46406C2.41333 9.30411 2.46399 9.14957 2.54399 9.00988C2.62399 8.87019 2.73165 8.74829 2.86038 8.65164C2.98911 8.55499 3.13621 8.48562 3.29268 8.44777C3.44914 8.40993 3.61169 8.40441 3.77036 8.43155C3.92903 8.45868 4.0805 8.51791 4.21549 8.6056L6.85319 10.1292C6.99187 10.2046 7.11408 10.3069 7.21261 10.4302C7.31114 10.5535 7.38401 10.6953 7.42693 10.8472C7.46984 10.9991 7.48193 11.158 7.46249 11.3147C7.44305 11.4713 7.39247 11.6225 7.31373 11.7593C7.23499 11.8961 7.12967 12.0157 7.00399 12.1112C6.8783 12.2067 6.73478 12.2761 6.58188 12.3153C6.42898 12.3544 6.26979 12.3626 6.11367 12.3394C5.95756 12.3161 5.80768 12.2618 5.67285 12.1797L3.04118 10.6561Z" fill="black"/>
</g>
<defs>
<clipPath id="clip0_9_41">
<rect width="37" height="37" fill="white"/>
</clipPath>
</defs>
</svg>
