<svg width="52" height="52" viewBox="0 0 52 52" fill="none" xmlns="http://www.w3.org/2000/svg">
<path d="M12.1043 16.7085H1.66519C1.20188 16.7085 0.826477 17.0849 0.826477 17.5491V51.1593C0.826477 51.6236 1.20188 51.9999 1.66519 51.9999H12.1043C12.5676 51.9999 12.943 51.6236 12.943 51.1593V17.5491C12.943 17.0849 12.5676 16.7085 12.1043 16.7085Z" fill="#6C6C60"/>
<path d="M6.88849 0C3.09014 0 0 3.09359 0 6.89611C0 10.7003 3.09014 13.7951 6.88849 13.7951C10.6838 13.7951 13.7714 10.7001 13.7714 6.89611C13.7716 3.09359 10.6838 0 6.88849 0Z" fill="#6C6C60"/>
<path d="M38.6568 15.8732C34.4641 15.8732 31.3647 17.6795 29.4848 19.732V17.5491C29.4848 17.0849 29.1094 16.7085 28.6461 16.7085H18.6489C18.1856 16.7085 17.8102 17.0849 17.8102 17.5491V51.1593C17.8102 51.6236 18.1856 51.9999 18.6489 51.9999H29.0652C29.5285 51.9999 29.9039 51.6236 29.9039 51.1593V34.53C29.9039 28.9264 31.4226 26.7433 35.3203 26.7433C39.5651 26.7433 39.9025 30.243 39.9025 34.8184V51.1595C39.9025 51.6238 40.2779 52.0001 40.7412 52.0001H51.1613C51.6246 52.0001 52 51.6238 52 51.1595V32.7237C52 24.3912 50.4147 15.8732 38.6568 15.8732Z" fill="#6C6C60"/>
</svg>
